<svg xmlns="http://www.w3.org/2000/svg" width="200" height="112" fill="none"><path fill="#F0F1F2" d="M187.726 112a90 90 0 0 0 .274-7c0-48.601-39.399-88-88-88s-88 39.399-88 88q.001 3.535.274 7z"/><g filter="url(#a)"><rect width="85.477" height="59.901" x="23" y="23.431" fill="#fff" rx="5.364"/><path fill="#fff" d="M28.938 29.929c.556 0 1.007-.452 1.007-1.01a1.007 1.007 0 1 0-2.012 0c0 .558.45 1.01 1.005 1.01M32.962 29.929c.556 0 1.006-.452 1.006-1.01 0-.556-.45-1.008-1.006-1.008-.555 0-1.006.452-1.006 1.009s.45 1.009 1.006 1.009M36.987 29.929c.555 0 1.006-.452 1.006-1.01 0-.556-.45-1.008-1.006-1.008s-1.006.452-1.006 1.009.45 1.009 1.006 1.009"/><path fill="#399C97" d="M65.914 62.769c7.9 0 14.305-6.405 14.305-14.305s-6.405-14.305-14.305-14.305S51.61 40.564 51.61 48.464s6.405 14.305 14.305 14.305"/><path fill="#399C97" fill-rule="evenodd" d="M92.156 83.332c-3.72-10.92-14.063-18.775-26.242-18.775s-22.522 7.855-26.242 18.775z" clip-rule="evenodd"/></g><g filter="url(#b)"><rect width="85.477" height="59.901" x="91.523" y="43.1" fill="#CECFD0" rx="5.364"/><path fill="#fff" d="M97.462 49.598c.555 0 1.006-.452 1.006-1.01 0-.556-.45-1.008-1.006-1.008s-1.006.452-1.006 1.009.45 1.008 1.006 1.008M101.486 49.598a1.008 1.008 0 0 0 0-2.018c-.556 0-1.006.452-1.006 1.009s.45 1.008 1.006 1.008M105.51 49.598c.556 0 1.006-.452 1.006-1.01a1.007 1.007 0 1 0-2.012 0c0 .558.451 1.01 1.006 1.01"/><path fill="#3E6CF2" d="M134.438 82.438c7.9 0 14.304-6.405 14.304-14.305s-6.404-14.305-14.304-14.305-14.305 6.405-14.305 14.305 6.404 14.305 14.305 14.305"/><path fill="#3E6CF2" fill-rule="evenodd" d="M160.679 103.001c-3.719-10.92-14.063-18.774-26.241-18.774-12.179 0-22.523 7.855-26.242 18.774z" clip-rule="evenodd"/></g><path fill="#3E6CF2" d="M149.89 11h33.43c4.79 0 8.68 3.89 8.68 8.68v16.71c0 4.79-3.89 8.68-8.68 8.68h-17.16l-15.15 8.36 1.1-8.36h-2.22c-4.79 0-8.68-3.89-8.68-8.68V19.68c0-4.79 3.89-8.68 8.68-8.68"/><path fill="#fff" fill-rule="evenodd" d="M155 28.5c0 .178.119.237.238.237 6.121 1.186 9.984 4.564 11.054 11.026 0 .118.119.237.238.237s.178-.119.178-.237c1.07-6.462 4.933-9.84 11.054-11.026.119 0 .238-.118.238-.237s-.119-.237-.238-.237c-6.121-1.186-9.984-4.565-11.054-11.026 0-.118-.119-.237-.238-.237s-.178.119-.178.237c-1.07 6.462-4.933 9.84-11.054 11.026-.119 0-.238.06-.238.237" clip-rule="evenodd"/><defs><filter id="a" width="99.781" height="74.206" x="15.848" y="18.066" color-interpolation-filters="sRGB" filterUnits="userSpaceOnUse"><feFlood flood-opacity="0" result="BackgroundImageFix"/><feColorMatrix in="SourceAlpha" result="hardAlpha" values="0 0 0 0 0 0 0 0 0 0 0 0 0 0 0 0 0 0 127 0"/><feOffset dy="1.788"/><feGaussianBlur stdDeviation="3.576"/><feComposite in2="hardAlpha" operator="out"/><feColorMatrix values="0 0 0 0 0.337806 0 0 0 0 0.351597 0 0 0 0 0.378368 0 0 0 0.2 0"/><feBlend in2="BackgroundImageFix" result="effect1_dropShadow_2166_1127"/><feBlend in="SourceGraphic" in2="effect1_dropShadow_2166_1127" result="shape"/></filter><filter id="b" width="99.781" height="74.207" x="84.371" y="37.735" color-interpolation-filters="sRGB" filterUnits="userSpaceOnUse"><feFlood flood-opacity="0" result="BackgroundImageFix"/><feColorMatrix in="SourceAlpha" result="hardAlpha" values="0 0 0 0 0 0 0 0 0 0 0 0 0 0 0 0 0 0 127 0"/><feOffset dy="1.788"/><feGaussianBlur stdDeviation="3.576"/><feComposite in2="hardAlpha" operator="out"/><feColorMatrix values="0 0 0 0 0.376692 0 0 0 0 0.376692 0 0 0 0 0.376692 0 0 0 0.25 0"/><feBlend in2="BackgroundImageFix" result="effect1_dropShadow_2166_1127"/><feBlend in="SourceGraphic" in2="effect1_dropShadow_2166_1127" result="shape"/></filter></defs></svg>