<svg xmlns="http://www.w3.org/2000/svg" width="200" height="112" fill="none"><g clip-path="url(#a)"><path fill="#F0F1F2" d="M187.726 112a90 90 0 0 0 .274-7c0-48.601-39.399-88-88-88s-88 39.399-88 88q.001 3.535.274 7z"/><mask id="b" width="188" height="95" x="0" y="17" maskUnits="userSpaceOnUse" style="mask-type:alpha"><path fill="#F0F1F2" d="M188 105c0-46.923-36.725-85.268-83-87.86V17H0v95h187.726a90 90 0 0 0 .274-7"/></mask><g mask="url(#b)"><g filter="url(#c)"><path fill="#fff" d="M183.999 24h-152C29.8 24 28 26.073 28 28.607v119.786c0 2.534 1.8 4.607 4 4.607H184c2.201 0 4.001-2.073 4.001-4.607V28.607c0-2.534-1.8-4.607-4.001-4.607"/></g><path fill="url(#d)" d="M183.999 24h-152C29.8 24 28 26.073 28 28.607v119.786c0 2.534 1.8 4.607 4 4.607H184c2.201 0 4.001-2.073 4.001-4.607V28.607c0-2.534-1.8-4.607-4.001-4.607"/><path fill="#EDEEEF" fill-rule="evenodd" d="M232.297 54.865H59.703a.84.84 0 0 0-.838.838v84.594c0 .463.375.838.838.838h172.594a.84.84 0 0 0 .838-.838V55.703a.84.84 0 0 0-.838-.838M59.703 49C56 49 53 52 53 55.703v84.594c0 3.702 3 6.703 6.703 6.703h172.594a6.703 6.703 0 0 0 6.703-6.703V55.703A6.703 6.703 0 0 0 232.297 49z" clip-rule="evenodd"/><rect width="41.008" height="6.703" x="83.162" y="73" fill="#399C97" rx="3.351"/><rect width="41.008" height="6.703" x="59" y="35" fill="#399C97" rx="3.351"/><rect width="33.685" height="6.703" x="83.162" y="86.216" fill="#7FBEC6" rx="3.351"/><rect width="42.472" height="6.703" x="83.162" y="99" fill="#E9AF58" rx="3.351"/><rect width="30.756" height="6.703" x="121" y="86.216" fill="#EC856F" rx="3.351"/><path fill="#D2D5D9" fill-rule="evenodd" d="M70 65.486A2.514 2.514 0 0 1 72.513 68v5a2.514 2.514 0 1 1-5.027 0v-5A2.514 2.514 0 0 1 70 65.486m0 15A2.514 2.514 0 0 1 72.513 83v10a2.514 2.514 0 1 1-5.027 0V83A2.514 2.514 0 0 1 70 80.486m0 20A2.514 2.514 0 0 1 72.513 103v10a2.513 2.513 0 0 1-5.027 0v-10A2.514 2.514 0 0 1 70 100.486m0 20A2.514 2.514 0 0 1 72.513 123v5a2.513 2.513 0 0 1-5.027 0v-5A2.514 2.514 0 0 1 70 120.486" clip-rule="evenodd"/></g><path fill="#000" d="M46.998 72.973a4.004 4.004 0 0 0 3.998 3.985 4.004 4.004 0 0 0 3.998-3.986 4.004 4.004 0 0 0-3.998-3.986 4.004 4.004 0 0 0-3.998 3.987m-3.998 0C43 68.587 46.599 65 50.996 65s7.996 3.589 7.996 7.972c0 4.385-3.598 7.972-7.996 7.972S43 77.358 43 72.974"/><path fill="#000" fill-rule="evenodd" d="M25 70V51.5h4V70a2 2 0 0 0 2 2h13.5v4H31a6 6 0 0 1-6-6" clip-rule="evenodd"/><g filter="url(#e)"><circle cx="27" cy="38" r="23" fill="#fff"/><path fill="#1F2225" fill-rule="evenodd" d="M12 38c0 .232.155.31.31.31 7.985 1.546 13.023 5.953 14.419 14.38 0 .155.155.31.31.31s.232-.155.232-.31c1.396-8.427 6.434-12.834 14.419-14.38.155 0 .31-.155.31-.31s-.155-.31-.31-.31c-7.985-1.546-13.023-5.953-14.419-14.38 0-.155-.155-.31-.31-.31s-.232.155-.232.31c-1.396 8.427-6.434 12.834-14.419 14.38-.155 0-.31.078-.31.31" clip-rule="evenodd"/></g></g><defs><filter id="c" width="168.889" height="137.889" x="23.556" y="20.667" color-interpolation-filters="sRGB" filterUnits="userSpaceOnUse"><feFlood flood-opacity="0" result="BackgroundImageFix"/><feColorMatrix in="SourceAlpha" result="hardAlpha" values="0 0 0 0 0 0 0 0 0 0 0 0 0 0 0 0 0 0 127 0"/><feOffset dy="1.111"/><feGaussianBlur stdDeviation="2.222"/><feComposite in2="hardAlpha" operator="out"/><feColorMatrix values="0 0 0 0 0 0 0 0 0 0 0 0 0 0 0 0 0 0 0.15 0"/><feBlend in2="BackgroundImageFix" result="effect1_dropShadow_2050_345"/><feBlend in="SourceGraphic" in2="effect1_dropShadow_2050_345" result="shape"/></filter><filter id="e" width="68.8" height="68.8" x="-7.4" y="6.132" color-interpolation-filters="sRGB" filterUnits="userSpaceOnUse"><feFlood flood-opacity="0" result="BackgroundImageFix"/><feColorMatrix in="SourceAlpha" result="hardAlpha" values="0 0 0 0 0 0 0 0 0 0 0 0 0 0 0 0 0 0 127 0"/><feOffset dy="2.532"/><feGaussianBlur stdDeviation="5.7"/><feColorMatrix values="0 0 0 0 0 0 0 0 0 0 0 0 0 0 0 0 0 0 0.1 0"/><feBlend in2="BackgroundImageFix" result="effect1_dropShadow_2050_345"/><feBlend in="SourceGraphic" in2="effect1_dropShadow_2050_345" result="shape"/></filter><linearGradient id="d" x1="108" x2="108" y1="73.5" y2="118" gradientUnits="userSpaceOnUse"><stop stop-color="#fff" stop-opacity="0"/><stop offset="1" stop-color="#fff"/></linearGradient><clipPath id="a"><path fill="#fff" d="M0 0h200v112H0z"/></clipPath></defs></svg>